<svg width="201" height="387" viewBox="0 0 201 387" fill="none" xmlns="http://www.w3.org/2000/svg">
<path d="M62.3919 17.3514H44.8784V22.5405H57.2838C56.6757 29.8378 50.5946 32.9189 44.8784 32.9189C37.5405 32.9189 31.1757 27.1622 31.1757 19.0946C31.1757 11.2297 37.2568 5.18919 44.8784 5.18919C50.7568 5.18919 54.2432 8.95946 54.2432 8.95946L57.8919 5.18919C57.8919 5.18919 53.2297 0 44.7162 0C33.8919 0 25.5 9.16217 25.5 19.0135C25.5 28.7027 33.4054 38.1487 45 38.1487C55.2162 38.1487 62.6757 31.1351 62.6757 20.7973C62.6757 18.6081 62.3919 17.3514 62.3919 17.3514Z" fill="#4285F4"/>
<path d="M76.7032 13.5811C69.5276 13.5811 64.3789 19.2162 64.3789 25.7432C64.3789 32.3919 69.3654 38.1081 76.7843 38.1081C83.514 38.1081 88.987 32.9594 88.987 25.9054C89.0276 17.7567 82.6222 13.5811 76.7032 13.5811ZM76.7843 18.4054C80.3113 18.4054 83.6762 21.2432 83.6762 25.8648C83.6762 30.3648 80.3519 33.3243 76.7843 33.3243C72.8519 33.3243 69.7708 30.2027 69.7708 25.8648C69.7708 21.5675 72.8113 18.4054 76.7843 18.4054Z" fill="#EA4335"/>
<path d="M103.54 13.5811C96.3645 13.5811 91.2158 19.2162 91.2158 25.7432C91.2158 32.3919 96.2023 38.1081 103.621 38.1081C110.351 38.1081 115.824 32.9594 115.824 25.9054C115.824 17.7567 109.419 13.5811 103.54 13.5811ZM103.621 18.4054C107.148 18.4054 110.513 21.2432 110.513 25.8648C110.513 30.3648 107.189 33.3243 103.621 33.3243C99.6888 33.3243 96.6077 30.2027 96.6077 25.8648C96.5672 21.5675 99.6483 18.4054 103.621 18.4054Z" fill="#FBBC05"/>
<path d="M129.811 13.5811C123.203 13.5811 118.055 19.3378 118.055 25.8243C118.055 33.2027 124.055 38.1081 129.73 38.1081C133.217 38.1081 135.082 36.7297 136.46 35.1081V37.5405C136.46 41.7567 133.906 44.3108 130.014 44.3108C126.284 44.3108 124.379 41.5135 123.73 39.9324L119.028 41.9189C120.69 45.4459 124.055 49.1351 130.055 49.1351C136.622 49.1351 141.609 45 141.609 36.3648V14.3108H136.46V16.3784C134.879 14.7162 132.69 13.5811 129.811 13.5811ZM130.298 18.4054C133.541 18.4054 136.866 21.1621 136.866 25.8648C136.866 30.6486 133.541 33.2838 130.257 33.2838C126.73 33.2838 123.487 30.4459 123.487 25.9054C123.447 21.2027 126.852 18.4054 130.298 18.4054Z" fill="#4285F4"/>
<path d="M164.432 13.5811C158.23 13.5811 153 18.527 153 25.8243C153 33.5675 158.838 38.1486 165.041 38.1486C170.23 38.1486 173.432 35.3108 175.297 32.7567L171.041 29.9189C169.946 31.6216 168.081 33.2838 165.041 33.2838C161.595 33.2838 160.014 31.3784 159.041 29.554L175.5 22.7432L174.649 20.7567C173.068 16.8243 169.338 13.5811 164.432 13.5811ZM164.676 18.2838C166.905 18.2838 168.527 19.4594 169.216 20.9189L158.23 25.5C157.743 21.9324 161.108 18.2838 164.676 18.2838Z" fill="#EA4335"/>
<path d="M150.568 1.25684H145.176V37.419H150.568V1.25684Z" fill="#34A853"/>
<path d="M200.5 108.397V104.871H196.132V99.3971L195.974 99.4498L191.868 100.713H191.763V104.871H185.289V102.555C185.289 101.502 185.553 100.66 186.026 100.134C186.5 99.6077 187.184 99.2919 188.026 99.2919C188.658 99.2919 189.289 99.4498 189.921 99.7129L190.079 99.7656V96.0813L190.026 96.0287C189.447 95.8182 188.605 95.7129 187.605 95.7129C186.342 95.7129 185.184 95.9761 184.184 96.555C183.184 97.0814 182.395 97.8708 181.816 98.8708C181.237 99.8708 180.974 101.029 180.974 102.292V104.818H177.921V108.345H180.974V123.187H185.342V108.345H191.816V117.818C191.816 121.713 193.658 123.66 197.237 123.66C197.816 123.66 198.447 123.608 199.079 123.45C199.711 123.292 200.184 123.187 200.447 123.029L200.5 122.976V119.45L200.342 119.555C200.079 119.713 199.816 119.818 199.447 119.924C199.079 120.029 198.816 120.081 198.605 120.081C197.763 120.081 197.132 119.871 196.763 119.397C196.395 118.924 196.184 118.134 196.184 117.029V108.397H200.5ZM168.184 120.081C166.605 120.081 165.342 119.555 164.447 118.502C163.553 117.45 163.131 115.976 163.131 114.081C163.131 112.134 163.605 110.608 164.447 109.555C165.342 108.502 166.553 107.976 168.131 107.976C169.658 107.976 170.868 108.502 171.71 109.502C172.553 110.502 173.026 112.029 173.026 113.976C173.026 115.976 172.605 117.502 171.816 118.502C170.974 119.608 169.763 120.081 168.184 120.081ZM168.342 104.45C165.342 104.45 162.921 105.345 161.184 107.081C159.447 108.818 158.605 111.239 158.605 114.292C158.605 117.187 159.447 119.45 161.131 121.134C162.816 122.818 165.079 123.66 167.868 123.66C170.816 123.66 173.131 122.766 174.868 120.976C176.605 119.187 177.447 116.818 177.447 113.871C177.447 110.976 176.658 108.608 175.026 106.976C173.447 105.292 171.237 104.45 168.342 104.45ZM151.605 104.45C149.552 104.45 147.868 104.976 146.552 106.029C145.237 107.081 144.605 108.45 144.605 110.081C144.605 110.924 144.763 111.713 145.026 112.345C145.289 112.976 145.763 113.555 146.342 114.029C146.921 114.502 147.816 115.029 148.974 115.502C149.974 115.924 150.71 116.239 151.184 116.555C151.658 116.818 151.974 117.081 152.131 117.345C152.289 117.608 152.395 117.976 152.395 118.397C152.395 119.608 151.447 120.239 149.552 120.239C148.868 120.239 148.026 120.081 147.184 119.818C146.289 119.502 145.5 119.134 144.763 118.555L144.605 118.45V122.66L144.658 122.713C145.289 122.976 146.079 123.239 146.973 123.45C147.868 123.66 148.71 123.713 149.447 123.713C151.658 123.713 153.5 123.187 154.763 122.134C156.079 121.081 156.763 119.66 156.763 117.976C156.763 116.766 156.395 115.66 155.71 114.818C155.026 113.976 153.763 113.187 152.079 112.502C150.71 111.976 149.868 111.502 149.5 111.134C149.131 110.818 148.974 110.345 148.974 109.713C148.974 109.187 149.184 108.766 149.658 108.397C150.131 108.029 150.71 107.871 151.5 107.871C152.237 107.871 152.974 107.976 153.71 108.187C154.447 108.397 155.079 108.713 155.658 109.081L155.816 109.187V105.187L155.763 105.134C155.237 104.923 154.605 104.713 153.816 104.608C152.974 104.555 152.237 104.45 151.605 104.45ZM133.184 120.081C131.605 120.081 130.342 119.555 129.447 118.502C128.552 117.45 128.131 115.976 128.131 114.081C128.131 112.134 128.605 110.608 129.447 109.555C130.342 108.502 131.552 107.976 133.131 107.976C134.658 107.976 135.868 108.502 136.71 109.502C137.552 110.502 138.026 112.029 138.026 113.976C138.026 115.976 137.605 117.502 136.816 118.502C136.026 119.608 134.816 120.081 133.184 120.081ZM133.394 104.45C130.394 104.45 127.973 105.345 126.237 107.081C124.5 108.818 123.658 111.239 123.658 114.292C123.658 117.187 124.5 119.45 126.184 121.134C127.868 122.818 130.131 123.66 132.921 123.66C135.868 123.66 138.184 122.766 139.921 120.976C141.658 119.187 142.5 116.818 142.5 113.871C142.5 110.976 141.71 108.608 140.079 106.976C138.5 105.292 136.237 104.45 133.394 104.45ZM117.026 108.081V104.923H112.71V123.239H117.026V113.871C117.026 112.292 117.394 110.976 118.079 109.976C118.763 108.976 119.71 108.502 120.868 108.502C121.237 108.502 121.71 108.555 122.184 108.713C122.658 108.818 122.973 108.976 123.184 109.134L123.342 109.239V104.871L123.289 104.818C122.868 104.66 122.342 104.555 121.605 104.555C120.5 104.555 119.552 104.923 118.71 105.608C118.026 106.239 117.5 107.029 117.026 108.081ZM105.026 104.45C103.026 104.45 101.289 104.871 99.7628 105.713C98.2365 106.555 97.0786 107.766 96.2891 109.292C95.4996 110.818 95.0785 112.608 95.0785 114.555C95.0785 116.292 95.447 117.871 96.2364 119.292C97.0259 120.713 98.0786 121.818 99.447 122.555C100.815 123.292 102.394 123.713 104.184 123.713C106.236 123.713 107.973 123.292 109.394 122.502L109.447 122.45V118.502L109.289 118.66C108.658 119.134 107.921 119.502 107.184 119.766C106.447 120.029 105.71 120.187 105.131 120.187C103.447 120.187 102.079 119.66 101.079 118.608C100.079 117.555 99.6049 116.081 99.6049 114.239C99.6049 112.397 100.131 110.871 101.184 109.766C102.236 108.66 103.552 108.081 105.236 108.081C106.658 108.081 108.026 108.555 109.342 109.502L109.5 109.608V105.45L109.447 105.397C108.973 105.134 108.289 104.871 107.447 104.713C106.605 104.555 105.763 104.45 105.026 104.45ZM92.1312 104.923H87.8154V123.239H92.1312V104.923ZM90.0259 97.0814C89.3417 97.0814 88.7101 97.3445 88.1838 97.8182C87.6575 98.2919 87.3943 98.9235 87.3943 99.6077C87.3943 100.292 87.6575 100.923 88.1311 101.397C88.6575 101.871 89.2364 102.081 89.9733 102.081C90.7101 102.081 91.3417 101.871 91.8154 101.397C92.3417 100.923 92.6049 100.345 92.6049 99.6077C92.6049 98.9235 92.3417 98.3445 91.868 97.8182C91.3943 97.3445 90.7627 97.0814 90.0259 97.0814ZM79.289 103.555V123.239H83.7101V97.6603H77.6048L69.8679 116.66L62.3416 97.6603H56.0258V123.239H60.1837V103.555H60.3416L68.289 123.239H71.3942L79.1837 103.555H79.289Z" fill="#706D6E"/>
<path d="M20.7632 109.398H0.5V89.1351H20.7632V109.398Z" fill="#F1511B"/>
<path d="M43.1834 109.398H22.9202V89.1351H43.1834V109.398Z" fill="#80CC28"/>
<path d="M20.7632 131.82H0.5V111.504H20.7632V131.82Z" fill="#00ADEF"/>
<path d="M43.1834 131.82H22.9202V111.504H43.1834V131.82Z" fill="#FBBC09"/>
<path d="M104.8 184.404C104.8 186.201 103.353 187.651 101.553 187.651C99.7534 187.651 98.3065 186.204 98.3065 184.404C98.3065 182.607 99.7097 181.157 101.553 181.157C103.394 181.204 104.8 182.651 104.8 184.404ZM91.3784 190.938C91.3784 191.244 91.3784 191.729 91.3784 191.729C91.3784 191.729 89.8441 189.71 86.5097 189.71C81.0722 189.71 76.816 193.876 76.816 199.622C76.816 205.326 81.0254 209.535 86.5097 209.535C89.8441 209.535 91.3784 207.472 91.3784 207.472V208.307C91.3784 208.701 91.6847 209.01 92.0816 209.01H96.1159V190.238C96.1159 190.238 92.4316 190.238 92.0816 190.238C91.6847 190.238 91.3784 190.588 91.3784 190.938ZM91.3784 203.001C90.6316 204.097 89.141 205.063 87.3441 205.063C84.141 205.063 81.6847 203.044 81.6847 199.669C81.6847 196.247 84.141 194.276 87.3441 194.276C89.0972 194.276 90.6785 195.285 91.3784 196.338V203.001ZM99.1409 190.238H103.922V209.054H99.1409V190.238ZM170.85 189.754C167.559 189.754 165.981 191.773 165.981 191.773V181.204H161.2V209.054C161.2 209.054 164.884 209.054 165.234 209.054C165.628 209.054 165.938 208.704 165.938 208.351V207.516C165.938 207.516 167.472 209.579 170.806 209.579C176.244 209.579 180.5 205.369 180.5 199.666C180.5 193.923 176.244 189.754 170.85 189.754ZM170.059 204.976C168.219 204.976 166.769 204.01 166.025 202.913V196.204C166.772 195.194 168.394 194.141 170.059 194.141C173.263 194.141 175.719 196.16 175.719 199.535C175.719 203.001 173.263 204.976 170.059 204.976ZM158.7 197.913V209.097H153.919V198.441C153.919 195.329 152.909 194.101 150.234 194.101C148.788 194.101 147.297 194.847 146.331 195.941V209.054H141.55V190.238H145.366C145.76 190.238 146.069 190.588 146.069 190.941V191.732C147.472 190.285 149.316 189.713 151.156 189.713C153.263 189.713 155.016 190.326 156.419 191.51C158.044 192.957 158.7 194.754 158.7 197.913ZM129.841 189.754C126.55 189.754 124.972 191.773 124.972 191.773V181.204H120.191V209.054C120.191 209.054 123.875 209.054 124.225 209.054C124.619 209.054 124.928 208.704 124.928 208.351V207.516C124.928 207.516 126.463 209.579 129.797 209.579C135.235 209.579 139.491 205.369 139.491 199.666C139.535 193.923 135.281 189.754 129.841 189.754ZM129.053 204.976C127.213 204.976 125.763 204.01 125.019 202.913V196.204C125.766 195.194 127.388 194.141 129.053 194.141C132.256 194.141 134.713 196.16 134.713 199.535C134.71 203.001 132.253 204.976 129.053 204.976ZM116.025 189.754C117.472 189.754 118.219 190.016 118.219 190.016V194.448C118.219 194.448 114.228 193.088 111.728 195.938V209.094H106.947V190.235C106.947 190.235 110.632 190.235 110.982 190.235C111.375 190.235 111.685 190.585 111.685 190.938V191.729C112.607 190.676 114.535 189.754 116.025 189.754ZM66.1598 207.341C65.8973 206.729 65.6785 206.069 65.4129 205.544C65.0192 204.622 64.6223 203.791 64.2723 203.001L64.2285 202.957C60.7629 195.457 57.0786 187.869 53.1755 180.369L53.0442 180.063C52.6505 179.316 52.2536 178.529 51.8598 177.694C51.3786 176.773 50.8505 175.854 50.063 174.932C48.4849 172.913 46.1599 171.819 43.7036 171.819C41.2036 171.819 38.9661 172.916 37.3005 174.801C36.5536 175.723 35.9849 176.641 35.5036 177.563C35.1099 178.354 34.713 179.141 34.3193 179.932L34.188 180.238C30.3287 187.738 26.6006 195.326 23.1349 202.826L23.0912 202.913C22.7412 203.704 22.3443 204.579 21.9506 205.457C21.6881 206.026 21.4693 206.597 21.2037 207.254C20.5443 209.094 20.3693 210.851 20.5912 212.647C21.16 216.419 23.6599 219.532 27.0818 220.938C28.3974 221.507 29.713 221.729 31.1162 221.729C31.5099 221.729 32.038 221.685 32.4318 221.641C34.0974 221.422 35.7661 220.894 37.4318 219.932C39.4943 218.791 41.4224 217.126 43.6161 214.713C45.8099 217.126 47.8255 218.747 49.8005 219.932C51.4661 220.897 53.1348 221.422 54.8005 221.641C55.1942 221.685 55.7223 221.729 56.1161 221.729C57.5192 221.729 58.9223 221.466 60.1504 220.938C63.6598 219.535 66.116 216.332 66.641 212.647C67.0348 210.938 66.816 209.185 66.1598 207.341ZM43.6161 209.929C40.8974 206.507 39.1849 203.307 38.5724 200.632C38.3099 199.491 38.2661 198.482 38.4411 197.563C38.5286 196.772 38.8349 196.072 39.2318 195.457C40.1974 194.098 41.7755 193.263 43.6161 193.263C45.4567 193.263 47.1255 194.054 48.0005 195.457C48.3942 196.069 48.7036 196.772 48.7911 197.563C48.9224 198.485 48.8786 199.494 48.6599 200.632C48.088 203.307 46.3349 206.51 43.6161 209.929ZM63.5723 212.297C63.2223 214.885 61.4661 217.166 59.0098 218.132C57.8254 218.613 56.5098 218.791 55.1942 218.613C53.9223 218.482 52.6942 218.044 51.3786 217.297C49.5817 216.288 47.7817 214.754 45.6755 212.429C48.9661 208.394 50.9817 204.666 51.7286 201.376C52.0786 199.841 52.1223 198.438 51.9911 197.122C51.7723 195.851 51.3317 194.71 50.6317 193.701C49.0974 191.463 46.4661 190.148 43.5692 190.148C40.6724 190.148 38.088 191.507 36.5068 193.701C35.8036 194.71 35.3661 195.851 35.1474 197.122C34.9287 198.438 35.0162 199.885 35.4099 201.376C36.1568 204.666 38.2161 208.438 41.463 212.472C39.4005 214.754 37.5599 216.332 35.7599 217.341C34.4443 218.088 33.2162 218.482 31.9443 218.657C30.5849 218.788 29.313 218.613 28.1287 218.176C25.6724 217.166 23.9193 214.929 23.5662 212.341C23.4349 211.069 23.5224 209.841 24.0037 208.438C24.1349 207.957 24.3974 207.429 24.6631 206.86C25.0131 206.069 25.4099 205.194 25.8037 204.36L25.8474 204.272C29.313 196.816 32.9974 189.229 36.8568 181.816L36.988 181.51C37.3818 180.763 37.7786 179.976 38.1724 179.229C38.5661 178.438 39.0068 177.694 39.5755 177.035C40.6286 175.851 42.0318 175.194 43.5661 175.194C45.1005 175.194 46.5036 175.854 47.5567 177.035C48.1255 177.694 48.5661 178.438 48.9599 179.229C49.3536 179.976 49.7505 180.763 50.1442 181.51L50.2755 181.816C54.0911 189.273 57.7754 196.86 61.2411 204.316V204.36C61.6348 205.151 61.9879 206.069 62.3817 206.86C62.6442 207.472 62.8629 207.957 63.041 208.438C63.616 209.754 63.791 210.982 63.5723 212.297Z" fill="#FF5A5F"/>
<path d="M17.5347 297.932H10.3774V280.083H5.5V274.274H10.3774V270.141C10.3774 265.242 12.5324 261.729 19.6741 261.729C21.1837 261.729 23.5573 262.031 23.5573 262.031V267.429H21.064C18.529 267.429 17.5347 268.199 17.5347 270.333V274.274H23.4584L22.9327 280.083H17.5347V297.932ZM33.9628 273.81C33.8587 273.81 33.7494 273.815 33.6453 273.815C27.0085 273.815 23.9685 278.807 23.9685 285.897C23.9685 294.824 27.909 298.4 33.6973 298.4C37.0079 298.4 39.1837 297.005 40.5059 294.408V297.937H47.3145V274.279H40.5059V277.917C39.4284 275.575 37.1901 273.842 33.9628 273.81ZM35.6962 279.401C38.4862 279.401 40.1571 281.348 40.1571 284.653L40.1623 288.031C40.1623 290.259 38.7777 292.867 35.6962 292.867C30.9541 292.867 31.079 287.745 31.079 286.038C31.079 280.301 33.6036 279.401 35.6962 279.401ZM50.0681 286.111C50.0681 283.237 49.9328 273.831 62.1861 273.831C67.1052 273.831 69.1613 275.398 69.1613 275.398L67.5112 280.52C67.5112 280.52 65.4603 279.39 62.7847 279.39C59.3596 279.39 57.1786 281.374 57.1786 284.866L57.1838 287.37C57.1838 290.728 59.292 292.966 62.7951 292.966C65.2312 292.966 67.4747 291.826 67.4747 291.826L69.1196 296.839C69.1196 296.839 67.2405 298.411 62.2226 298.411C50.547 298.406 50.0681 289.968 50.0681 286.111ZM109.086 273.815C115.723 273.815 118.81 278.807 118.81 285.897C118.81 294.824 114.869 298.4 109.081 298.4C105.77 298.4 103.324 297.005 102.002 294.408V297.937L95.2764 297.932V262.447L102.413 261.822V277.595C103.444 274.836 106.827 273.815 109.086 273.815ZM107.082 279.401C104.292 279.401 102.413 281.348 102.413 284.653L102.408 288.031C102.403 290.259 103.709 292.867 107.082 292.867C111.824 292.867 111.699 287.745 111.699 286.038C111.699 280.301 109.175 279.401 107.082 279.401ZM81.5448 273.836C74.0178 273.836 70.041 277.943 70.041 285.236V286.589C70.041 296.058 75.6211 298.494 82.2787 298.494C88.749 298.494 91.6744 296.683 91.6744 296.683L90.3366 291.862C90.3366 291.862 86.8906 293.33 83.1324 293.33C79.2336 293.33 77.5575 292.336 77.1254 288.588H92.2417V284.721C92.2469 276.819 87.7808 273.836 81.5448 273.836ZM81.727 278.662C84.3348 278.662 86.0214 280.26 85.9277 283.966H77.1411C77.292 280.067 79.1139 278.662 81.727 278.662ZM133.041 273.805C125.311 273.805 121.241 278.162 121.241 285.97C121.241 296.683 128.257 298.411 133.057 298.411C140.084 298.411 144.758 294.626 144.758 286.069C144.753 277.163 139.501 273.805 133.041 273.805ZM132.942 279.422C136.341 279.422 137.69 281.967 137.69 284.861V287.349C137.69 290.858 135.805 292.888 132.932 292.888C130.241 292.888 128.351 290.988 128.351 287.349V284.861C128.351 280.978 130.6 279.422 132.942 279.422ZM158.974 273.805C151.244 273.805 147.174 278.162 147.174 285.97C147.174 296.683 154.19 298.411 158.99 298.411C166.017 298.411 170.691 294.626 170.691 286.069C170.686 277.163 165.434 273.805 158.974 273.805ZM158.88 279.422C162.28 279.422 163.628 281.967 163.628 284.861V287.349C163.628 290.858 161.743 292.888 158.87 292.888C156.179 292.888 154.289 290.988 154.289 287.349V284.861C154.289 280.978 156.538 279.422 158.88 279.422ZM173.388 297.932V262.447L180.545 261.822V285.606L187.65 274.274H195.214L187.807 286.012L195.5 297.932H187.916L180.545 286.36V297.932H173.388Z" fill="#1877F2"/>
<path d="M44.4781 338.494C31.2397 338.494 20.5 349.234 20.5 362.472C20.5 375.71 31.2397 386.45 44.4781 386.45C57.7164 386.45 68.4562 375.71 68.4562 362.472C68.5 349.234 57.7603 338.494 44.4781 338.494ZM55.4808 373.08C55.0425 373.782 54.1219 374.001 53.4206 373.563C47.7658 370.099 40.7082 369.354 32.3356 371.239C31.5466 371.415 30.7137 370.932 30.5384 370.099C30.363 369.31 30.8452 368.478 31.6781 368.302C40.8397 366.198 48.6425 367.119 54.9986 370.976C55.7 371.458 55.9192 372.379 55.4808 373.08ZM58.4178 366.549C57.8918 367.426 56.7082 367.689 55.8315 367.163C49.3877 363.217 39.5685 362.034 31.9411 364.357C30.9329 364.664 29.9247 364.094 29.6178 363.13C29.311 362.121 29.8808 361.113 30.8452 360.806C39.5685 358.176 50.3959 359.447 57.8041 364.006C58.6808 364.532 58.9877 365.672 58.4178 366.549ZM58.6808 359.754C50.9658 355.152 38.2096 354.757 30.8014 356.993C29.6178 357.343 28.3466 356.686 27.9959 355.502C27.6452 354.319 28.3027 353.047 29.4863 352.697C37.9466 350.11 52.0616 350.636 60.9603 355.897C62.0123 356.51 62.363 357.913 61.7493 358.965C61.1356 360.017 59.7329 360.368 58.6808 359.754ZM85.7712 360.631C81.6068 359.623 80.9055 358.965 80.9055 357.475C80.9055 356.116 82.2205 355.152 84.1493 355.152C86.0342 355.152 87.8753 355.853 89.8041 357.299C89.8479 357.343 89.9356 357.343 90.0233 357.343C90.111 357.343 90.1548 357.299 90.1986 357.212L92.2151 354.363C92.3027 354.231 92.2589 354.099 92.1712 354.012C89.8479 352.171 87.2616 351.25 84.1932 351.25C79.7219 351.25 76.6096 353.924 76.6096 357.782C76.6096 361.902 79.3274 363.349 83.974 364.489C87.9192 365.409 88.6205 366.154 88.6205 367.513C88.6205 369.047 87.2616 369.968 85.0699 369.968C82.6589 369.968 80.6863 369.135 78.4507 367.25C78.4068 367.206 78.3192 367.163 78.2315 367.163C78.1438 367.163 78.1 367.206 78.0562 367.25L75.7767 369.968C75.689 370.099 75.689 370.231 75.8205 370.363C78.4068 372.642 81.563 373.869 84.9384 373.869C89.7603 373.869 92.8726 371.239 92.8726 367.163C92.8726 363.743 90.8123 361.858 85.7712 360.631ZM103.788 356.554C101.684 356.554 99.974 357.387 98.5712 359.053V357.168C98.5712 357.036 98.4397 356.905 98.3082 356.905H94.5822C94.4507 356.905 94.3192 357.036 94.3192 357.168V378.253C94.3192 378.384 94.4507 378.516 94.5822 378.516H98.3082C98.4397 378.516 98.5712 378.384 98.5712 378.253V371.59C99.974 373.168 101.684 373.957 103.788 373.957C107.689 373.957 111.59 370.976 111.59 365.278C111.59 359.535 107.689 356.554 103.788 356.554ZM107.295 365.234C107.295 368.127 105.497 370.187 102.955 370.187C100.412 370.187 98.4836 368.083 98.4836 365.234C98.4836 362.428 100.412 360.28 102.955 360.28C105.453 360.324 107.295 362.384 107.295 365.234ZM121.673 356.554C116.675 356.554 112.774 360.412 112.774 365.321C112.774 370.187 116.675 374.001 121.629 374.001C126.626 374.001 130.571 370.143 130.571 365.278C130.571 360.368 126.67 356.554 121.673 356.554ZM121.673 370.231C118.999 370.231 117.026 368.083 117.026 365.278C117.026 362.428 118.955 360.368 121.629 360.368C124.303 360.368 126.319 362.516 126.319 365.321C126.319 368.171 124.347 370.231 121.673 370.231ZM141.223 356.861H137.147V352.697C137.147 352.565 137.015 352.434 136.884 352.434H133.158C133.026 352.434 132.895 352.565 132.895 352.697V356.861H131.097C130.966 356.861 130.834 356.993 130.834 357.124V360.324C130.834 360.456 130.966 360.587 131.097 360.587H132.895V368.828C132.895 372.16 134.56 373.869 137.848 373.869C139.163 373.869 140.259 373.606 141.311 372.993C141.399 372.949 141.442 372.861 141.442 372.773V369.749C141.442 369.661 141.399 369.573 141.311 369.53C141.223 369.486 141.136 369.486 141.048 369.53C140.347 369.88 139.645 370.056 138.856 370.056C137.673 370.056 137.147 369.53 137.147 368.302V360.631H141.223C141.355 360.631 141.486 360.499 141.486 360.368V357.168C141.53 356.993 141.399 356.905 141.223 356.861ZM155.47 356.905V356.379C155.47 354.889 156.04 354.187 157.355 354.187C158.144 354.187 158.758 354.363 159.459 354.582C159.547 354.626 159.634 354.582 159.722 354.538C159.81 354.494 159.853 354.406 159.853 354.319V351.206C159.853 351.075 159.766 350.987 159.678 350.943C158.933 350.724 158.012 350.505 156.61 350.505C153.19 350.505 151.393 352.434 151.393 356.072V356.861H149.596C149.464 356.861 149.333 356.993 149.333 357.124V360.324C149.333 360.456 149.464 360.587 149.596 360.587H151.393V373.3C151.393 373.431 151.525 373.563 151.656 373.563H155.382C155.514 373.563 155.645 373.431 155.645 373.3V360.587H159.108L164.412 373.3C163.799 374.615 163.229 374.921 162.396 374.921C161.738 374.921 161.037 374.746 160.336 374.352C160.248 374.308 160.204 374.308 160.116 374.352C160.029 374.395 159.985 374.439 159.941 374.483L158.67 377.245C158.626 377.376 158.67 377.508 158.801 377.595C160.116 378.297 161.3 378.604 162.747 378.604C165.464 378.604 166.999 377.332 168.314 373.913L174.758 357.299C174.801 357.212 174.801 357.124 174.714 357.036C174.67 356.949 174.582 356.905 174.495 356.905H170.637C170.505 356.905 170.418 356.993 170.374 357.08L166.429 368.39L162.089 357.08C162.045 356.993 161.958 356.905 161.826 356.905H155.47ZM147.229 356.861H143.503C143.371 356.861 143.24 356.993 143.24 357.124V373.3C143.24 373.431 143.371 373.563 143.503 373.563H147.229C147.36 373.563 147.492 373.431 147.492 373.3V357.124C147.492 356.993 147.36 356.861 147.229 356.861ZM145.388 349.497C143.897 349.497 142.714 350.68 142.714 352.171C142.714 353.661 143.897 354.845 145.388 354.845C146.878 354.845 148.062 353.661 148.062 352.171C148.018 350.724 146.834 349.497 145.388 349.497ZM177.87 362.078C176.423 362.078 175.24 360.894 175.24 359.447C175.24 358.001 176.379 356.817 177.87 356.817C179.316 356.817 180.5 358.001 180.5 359.447C180.5 360.894 179.36 362.078 177.87 362.078ZM177.87 357.124C176.511 357.124 175.503 358.176 175.503 359.491C175.503 360.806 176.511 361.858 177.826 361.858C179.185 361.858 180.193 360.806 180.193 359.491C180.237 358.176 179.229 357.124 177.87 357.124ZM178.484 359.71L179.229 360.763H178.615L177.958 359.798H177.388V360.763H176.862V358.001H178.089C178.747 358.001 179.141 358.308 179.141 358.878C179.097 359.36 178.834 359.623 178.484 359.71ZM178.045 358.483H177.388V359.36H178.045C178.396 359.36 178.571 359.184 178.571 358.921C178.571 358.658 178.352 358.483 178.045 358.483Z" fill="#1ED760"/>
</svg>
